<?xml version="1.0" encoding="UTF-8" standalone="yes"?>
<svg xmlns="http://www.w3.org/2000/svg" xmlns:xlink="http://www.w3.org/1999/xlink" width="100px" height="100px" viewBox="0 0 100 100" version="1.1" fill="#1abc9c">
  <g id="surface104727">
    <path style="fill:none;stroke-width:2;stroke-linecap:butt;stroke-linejoin:miter;stroke:#1abc9c;stroke-opacity:1;stroke-miterlimit:10;" d="M 7 49 L 43 49 L 43 3 C 43 1.900391 42.099609 1 41 1 L 9 1 C 7.900391 1 7 1.900391 7 3 Z M 7 49 " transform="matrix(2,0,0,2,0,0)"/>
    <path style="fill:none;stroke-width:2;stroke-linecap:butt;stroke-linejoin:miter;stroke:#1abc9c;stroke-opacity:1;stroke-miterlimit:10;" d="M 13 7 L 22 7 L 22 13 L 13 13 Z M 28 7 L 37 7 L 37 13 L 28 13 Z M 13 17 L 22 17 L 22 23 L 13 23 Z M 28 17 L 37 17 L 37 23 L 28 23 Z M 13 27 L 22 27 L 22 33 L 13 33 Z M 28 27 L 37 27 L 37 33 L 28 33 Z M 13 37 L 22 37 L 22 43 L 13 43 Z M 28 37 L 37 37 L 37 49 L 28 49 Z M 28 37 " transform="matrix(2,0,0,2,0,0)"/>
  </g>
</svg>