<?xml version="1.0" encoding="UTF-8" standalone="yes"?>
<svg xmlns="http://www.w3.org/2000/svg" xmlns:xlink="http://www.w3.org/1999/xlink" width="100px" height="100px" viewBox="0 0 100 100" version="1.1" fill="#1abc9c">
  <g id="surface104566">
    <path style=" stroke:none;fill-rule:nonzero;fill:#1abc9c;fill-opacity:1;" d="M 63.984375 60.234375 C 64.453125 60.703125 65.078125 61.015625 65.703125 61.015625 C 66.25 61.015625 66.875 60.78125 67.265625 60.390625 L 76.71875 51.71875 C 77.1875 51.25 77.5 50.625 77.5 50 C 77.5 49.375 77.1875 48.75 76.71875 48.28125 L 67.34375 39.609375 C 66.40625 38.75 64.921875 38.828125 64.0625 39.765625 C 63.203125 40.703125 63.28125 42.1875 64.21875 43.046875 L 71.796875 50 L 64.21875 56.953125 C 63.203125 57.8125 63.125 59.296875 63.984375 60.234375 Z M 36.015625 39.765625 C 35.15625 38.828125 33.671875 38.75 32.734375 39.609375 L 23.28125 48.28125 C 22.8125 48.75 22.5 49.375 22.5 50 C 22.5 50.625 22.8125 51.25 23.28125 51.71875 L 32.734375 60.390625 C 33.203125 60.78125 33.75 61.015625 34.296875 61.015625 C 34.921875 61.015625 35.546875 60.78125 36.015625 60.234375 C 36.875 59.296875 36.796875 57.8125 35.859375 56.953125 L 28.28125 50 L 35.859375 43.046875 C 36.796875 42.1875 36.875 40.703125 36.015625 39.765625 Z M 43.046875 70.9375 C 43.28125 71.09375 43.515625 71.09375 43.75 71.09375 C 44.765625 71.09375 45.625 70.46875 45.9375 69.453125 L 58.4375 31.953125 C 58.828125 30.703125 58.203125 29.375 56.953125 28.984375 C 55.703125 28.59375 54.375 29.21875 53.984375 30.46875 L 41.484375 67.96875 C 41.09375 69.21875 41.796875 70.546875 43.046875 70.9375 Z M 43.046875 70.9375 "/>
    <path style=" stroke:none;fill-rule:nonzero;fill:#1abc9c;fill-opacity:1;" d="M 4.6875 50 C 4.6875 75 25 95.3125 50 95.3125 C 75 95.3125 95.3125 75 95.3125 50 C 95.3125 25 75 4.6875 50 4.6875 C 25 4.6875 4.6875 25 4.6875 50 Z M 90.625 50 C 90.625 72.421875 72.421875 90.625 50 90.625 C 27.578125 90.625 9.375 72.421875 9.375 50 C 9.375 27.578125 27.578125 9.375 50 9.375 C 72.421875 9.375 90.625 27.578125 90.625 50 Z M 90.625 50 "/>
  </g>
</svg>