<?xml version="1.0" encoding="UTF-8" standalone="yes"?>
<svg xmlns="http://www.w3.org/2000/svg" xmlns:xlink="http://www.w3.org/1999/xlink" width="100px" height="100px" viewBox="0 0 100 100" version="1.1" fill="#1abc9c">
  <g id="surface104507">
    <path style="fill:none;stroke-width:2;stroke-linecap:butt;stroke-linejoin:round;stroke:#1abc9c;stroke-opacity:1;stroke-miterlimit:10;" d="M 5 7 C 3.894531 7 3 7.894531 3 9 C 3 10.105469 3.894531 11 5 11 C 6.105469 11 7 10.105469 7 9 C 7 7.894531 6.105469 7 5 7 Z M 19 40 C 19 42.208984 17.208984 44 15 44 C 12.791016 44 11 42.208984 11 40 M 27 40 C 27 42.208984 25.208984 44 23 44 C 20.791016 44 19 42.208984 19 40 M 35 40 C 35 42.208984 33.208984 44 31 44 C 28.791016 44 27 42.208984 27 40 M 19 34 C 19 36.208984 17.208984 38 15 38 C 12.791016 38 11 36.208984 11 34 M 27 34 C 27 36.208984 25.208984 38 23 38 C 20.791016 38 19 36.208984 19 34 M 35 34 C 35 36.208984 33.208984 38 31 38 C 28.791016 38 27 36.208984 27 34 M 19 28 C 19 30.208984 17.208984 32 15 32 C 12.791016 32 11 30.208984 11 28 M 27 28 C 27 30.208984 25.208984 32 23 32 C 20.791016 32 19 30.208984 19 28 M 35 28 C 35 30.208984 33.208984 32 31 32 C 28.791016 32 27 30.208984 27 28 M 19 22 C 19 24.208984 17.208984 26 15 26 C 12.791016 26 11 24.208984 11 22 M 27 22 C 27 24.208984 25.208984 26 23 26 C 20.791016 26 19 24.208984 19 22 M 19 16 C 19 18.208984 17.208984 20 15 20 C 12.791016 20 11 18.208984 11 16 M 27 16 C 27 18.208984 25.208984 20 23 20 C 20.791016 20 19 18.208984 19 16 M 19 10 C 19 12.208984 17.208984 14 15 14 C 12.791016 14 11 12.208984 11 10 M 45 28 C 43.894531 28 43 28.894531 43 30 C 43 31.105469 43.894531 32 45 32 C 46.105469 32 47 31.105469 47 30 C 47 28.894531 46.105469 28 45 28 Z M 45 28 " transform="matrix(2,0,0,2,0,0)"/>
    <path style=" stroke:none;fill-rule:nonzero;fill:#1abc9c;fill-opacity:1;" d="M 46.828125 14 L 37.675781 4.847656 L 34.847656 7.675781 L 41.171875 14 Z M 50.828125 18 L 45.171875 18 L 85.757812 58.585938 L 88.585938 55.757812 Z M 56.648438 34.660156 L 53.988281 32 L 52 32 C 52 37.515625 56.484375 42 62 42 C 62.621094 42 63.21875 41.929688 63.808594 41.816406 L 59.339844 37.347656 C 58.175781 36.769531 57.230469 35.824219 56.648438 34.660156 Z M 46 30 C 47.707031 30 49.324219 29.546875 50.761719 28.769531 L 47.734375 25.742188 C 47.179688 25.910156 46.597656 26 46 26 C 42.691406 26 40 23.308594 40 20 L 36 20 C 36 25.515625 40.484375 30 46 30 Z M 46 30 "/>
    <path style=" stroke:none;fill-rule:nonzero;fill:#1abc9c;fill-opacity:1;" d="M 64.875 37.230469 L 67.753906 40.109375 C 67.832031 40.050781 67.921875 40.007812 68 39.949219 L 68 40.355469 L 72 44.355469 L 72 32 L 68 32 C 68 34.261719 66.726562 36.210938 64.875 37.230469 Z M 62 50 C 58.691406 50 56 47.308594 56 44 L 52 44 C 52 49.515625 56.484375 54 62 54 C 64.261719 54 66.324219 53.21875 68 51.949219 L 68 92 L 24 92 L 24 20 L 20 20 L 20 94 C 20 95.105469 20.894531 96 22 96 L 70 96 C 71.105469 96 72 95.105469 72 94 L 72 50.011719 L 67.714844 45.726562 C 66.96875 48.191406 64.703125 50 62 50 Z M 62 50 "/>
    <path style="fill:none;stroke-width:2;stroke-linecap:butt;stroke-linejoin:miter;stroke:#1abc9c;stroke-opacity:1;stroke-miterlimit:10;" d="M 7 9 L 43 9 " transform="matrix(2,0,0,2,0,0)"/>
  </g>
</svg>