<?xml version="1.0" encoding="UTF-8"?>
<svg xmlns="http://www.w3.org/2000/svg" xmlns:xlink="http://www.w3.org/1999/xlink" width="100px" height="100px" viewBox="0 0 100 100" version="1.1">
<g id="surface105025">
<path style=" stroke:none;fill-rule:nonzero;fill:rgb(76.078431%,90.980392%,100%);fill-opacity:1;" d="M 6.25 28.75 L 93.75 28.75 L 93.75 93.75 L 6.25 93.75 Z M 6.25 28.75 "/>
<path style=" stroke:none;fill-rule:nonzero;fill:rgb(45.490196%,58.823529%,76.862745%);fill-opacity:1;" d="M 92.5 30 L 92.5 92.5 L 7.5 92.5 L 7.5 30 L 92.5 30 M 95 27.5 L 5 27.5 L 5 95 L 95 95 Z M 95 27.5 "/>
<path style=" stroke:none;fill-rule:nonzero;fill:rgb(54.509804%,71.764706%,94.117647%);fill-opacity:1;" d="M 6.25 6.25 L 93.75 6.25 L 93.75 28.75 L 6.25 28.75 Z M 6.25 6.25 "/>
<path style=" stroke:none;fill-rule:nonzero;fill:rgb(30.588235%,47.843137%,70.980392%);fill-opacity:1;" d="M 92.5 7.5 L 92.5 27.5 L 7.5 27.5 L 7.5 7.5 L 92.5 7.5 M 95 5 L 5 5 L 5 30 L 95 30 Z M 95 5 "/>
<path style=" stroke:none;fill-rule:nonzero;fill:rgb(100%,100%,100%);fill-opacity:1;" d="M 42.5 12.5 L 87.5 12.5 L 87.5 22.5 L 42.5 22.5 Z M 42.5 12.5 "/>
<path style=" stroke:none;fill-rule:nonzero;fill:rgb(76.078431%,90.980392%,100%);fill-opacity:1;" d="M 17.5 12.5 C 14.738281 12.5 12.5 14.738281 12.5 17.5 C 12.5 20.261719 14.738281 22.5 17.5 22.5 C 20.261719 22.5 22.5 20.261719 22.5 17.5 C 22.5 14.738281 20.261719 12.5 17.5 12.5 Z M 32.5 12.5 C 29.738281 12.5 27.5 14.738281 27.5 17.5 C 27.5 20.261719 29.738281 22.5 32.5 22.5 C 35.261719 22.5 37.5 20.261719 37.5 17.5 C 37.5 14.738281 35.261719 12.5 32.5 12.5 Z M 32.5 12.5 "/>
</g>
</svg>
