<?xml version="1.0" encoding="UTF-8"?>
<svg xmlns="http://www.w3.org/2000/svg" xmlns:xlink="http://www.w3.org/1999/xlink" width="100px" height="100px" viewBox="0 0 100 100" version="1.1">
<g id="surface104570">
<path style="fill:none;stroke-width:2;stroke-linecap:butt;stroke-linejoin:miter;stroke:rgb(40%,47.45098%,56.078431%);stroke-opacity:1;stroke-miterlimit:10;" d="M 14 11 L 14 8 C 14 6.895313 14.895313 6 16 6 L 24 6 C 25.104688 6 26 6.895313 26 8 L 26 11 " transform="matrix(2.5,0,0,2.5,0,0)"/>
<path style=" stroke:none;fill-rule:nonzero;fill:rgb(100%,93.333333%,63.921569%);fill-opacity:1;" d="M 3.75 43.75 L 96.25 43.75 L 96.25 86.25 L 3.75 86.25 Z M 3.75 43.75 "/>
<path style=" stroke:none;fill-rule:nonzero;fill:rgb(72.941176%,60.784314%,28.235294%);fill-opacity:1;" d="M 95 45 L 95 85 L 5 85 L 5 45 L 95 45 M 97.5 42.5 L 2.5 42.5 L 2.5 87.5 L 97.5 87.5 Z M 97.5 42.5 "/>
<path style=" stroke:none;fill-rule:nonzero;fill:rgb(88.235294%,92.156863%,94.901961%);fill-opacity:1;" d="M 3.75 48.75 L 3.75 30 C 3.75 27.933594 5.433594 26.25 7.5 26.25 L 92.5 26.25 C 94.566406 26.25 96.25 27.933594 96.25 30 L 96.25 48.75 Z M 3.75 48.75 "/>
<path style=" stroke:none;fill-rule:nonzero;fill:rgb(47.058824%,54.509804%,61.176471%);fill-opacity:1;" d="M 92.5 27.5 C 93.878906 27.5 95 28.621094 95 30 L 95 47.5 L 5 47.5 L 5 30 C 5 28.621094 6.121094 27.5 7.5 27.5 L 92.5 27.5 M 92.5 25 L 7.5 25 C 4.738281 25 2.5 27.238281 2.5 30 L 2.5 50 L 97.5 50 L 97.5 30 C 97.5 27.238281 95.261719 25 92.5 25 Z M 92.5 25 "/>
<path style=" stroke:none;fill-rule:nonzero;fill:rgb(100%,100%,100%);fill-opacity:1;" d="M 68.75 41.25 L 78.75 41.25 L 78.75 56.25 L 68.75 56.25 Z M 68.75 41.25 "/>
<path style=" stroke:none;fill-rule:nonzero;fill:rgb(47.058824%,54.509804%,61.176471%);fill-opacity:1;" d="M 77.5 42.5 L 77.5 55 L 70 55 L 70 42.5 L 77.5 42.5 M 80 40 L 67.5 40 L 67.5 57.5 L 80 57.5 Z M 80 40 "/>
<path style=" stroke:none;fill-rule:nonzero;fill:rgb(100%,100%,100%);fill-opacity:1;" d="M 21.25 41.25 L 31.25 41.25 L 31.25 56.25 L 21.25 56.25 Z M 21.25 41.25 "/>
<path style=" stroke:none;fill-rule:nonzero;fill:rgb(47.058824%,54.509804%,61.176471%);fill-opacity:1;" d="M 30 42.5 L 30 55 L 22.5 55 L 22.5 42.5 L 30 42.5 M 32.5 40 L 20 40 L 20 57.5 L 32.5 57.5 Z M 32.5 40 "/>
</g>
</svg>
