<?xml version="1.0" encoding="UTF-8"?>
<svg xmlns="http://www.w3.org/2000/svg" xmlns:xlink="http://www.w3.org/1999/xlink" width="100px" height="100px" viewBox="0 0 100 100" version="1.1" fill="#4db6ac">
  <g id="surface107021">
    <path style="fill:none;stroke-width:2;stroke-linecap:round;stroke-linejoin:round;stroke:#4db6ac;stroke-opacity:1;stroke-miterlimit:10;" d="M 37.34375 30 C 37.640625 29.228516 38.259766 27.630859 38.451172 26.855469 L 44.996094 25.707031 L 44.996094 20.207031 L 38.451172 19.138672 C 38.064453 17.587891 37.455078 16.130859 36.654297 14.796875 L 40.46875 9.359375 L 36.580078 5.472656 L 31.210938 9.330078 C 29.873047 8.519531 28.40625 7.902344 26.845703 7.513672 L 25.703125 1 L 20.203125 1 L 19.144531 7.492188 C 17.582031 7.876953 16.107422 8.484375 14.765625 9.291016 L 9.414062 5.46875 L 5.525391 9.355469 L 9.289062 14.738281 C 8.476562 16.087891 7.857422 17.560547 7.464844 19.132812 L 1 20.207031 L 1 25.707031 L 7.455078 26.851562 C 7.845703 28.421875 8.464844 29.894531 9.28125 31.242188 L 5.466797 36.580078 L 9.355469 40.470703 L 14.744141 36.695312 C 16.089844 37.503906 17.5625 38.117188 19.123047 38.503906 L 20.203125 45 L 25.703125 45 L 27 38.494141 M 22.998047 30.332031 C 18.949219 30.332031 15.664062 27.048828 15.664062 23 C 15.664062 18.951172 18.947266 15.667969 22.998047 15.667969 C 27.048828 15.667969 30.330078 18.951172 30.330078 23 C 30.330078 27.048828 27.048828 30.332031 22.998047 30.332031 Z M 22.998047 30.332031 " transform="matrix(2,0,0,2,0,0)"/>
    <path style="fill:none;stroke-width:2;stroke-linecap:butt;stroke-linejoin:miter;stroke:#4db6ac;stroke-opacity:1;stroke-miterlimit:10;" d="M 47.154297 30 L 28.845703 30 C 27.826172 30 27 30.826172 27 31.845703 L 27 33 L 49 33 L 49 31.845703 C 49 30.826172 48.173828 30 47.154297 30 Z M 47.154297 30 " transform="matrix(2,0,0,2,0,0)"/>
    <path style="fill:none;stroke-width:2;stroke-linecap:round;stroke-linejoin:round;stroke:#4db6ac;stroke-opacity:1;stroke-miterlimit:10;" d="M 49 33 L 49 49 L 27 49 L 27 33 " transform="matrix(2,0,0,2,0,0)"/>
    <path style="fill:none;stroke-width:2;stroke-linecap:square;stroke-linejoin:miter;stroke:#4db6ac;stroke-opacity:1;stroke-miterlimit:10;" d="M 31 38.287109 L 33 40 L 37 36 M 31 43.287109 L 33 45 L 37 41 " transform="matrix(2,0,0,2,0,0)"/>
  </g>
</svg>
