<?xml version="1.0" encoding="UTF-8" standalone="yes"?>
<svg xmlns="http://www.w3.org/2000/svg" xmlns:xlink="http://www.w3.org/1999/xlink" width="100px" height="100px" viewBox="0 0 100 100" version="1.1" fill="#1abc9c">
  <g id="surface105175">
    <path style="fill:none;stroke-width:2;stroke-linecap:butt;stroke-linejoin:miter;stroke:#1abc9c;stroke-opacity:1;stroke-miterlimit:10;" d="M 15.039062 26.195312 C 17.585938 21.015625 22.306641 17.097656 28.009766 15.632812 M 17.544922 34.347656 C 19.314453 26.927734 25.21875 21.113281 32.685547 19.470703 M 21.396484 39.023438 C 22.693359 32.597656 27.072266 27.287109 32.923828 24.703125 " transform="matrix(2,0,0,2,0,0)"/>
    <path style=" stroke:none;fill-rule:nonzero;fill:#1abc9c;fill-opacity:1;" d="M 83.300781 24.519531 L 80.449219 27.371094 C 85.167969 33.703125 88 41.523438 88 50.011719 C 88 56.148438 86.582031 62.007812 83.785156 67.421875 C 81.652344 71.550781 78.835938 75.164062 75.527344 78.171875 L 78.359375 81.003906 C 81.953125 77.707031 85.015625 73.761719 87.339844 69.257812 C 90.386719 63.355469 92 56.699219 92 50.007812 C 92 40.417969 88.734375 31.597656 83.300781 24.519531 Z M 83.300781 24.519531 "/>
    <path style=" stroke:none;fill-rule:nonzero;fill:#1abc9c;fill-opacity:1;" d="M 72.40625 80.710938 C 66.027344 85.371094 58.242188 88.011719 50 88.011719 C 29.046875 88.011719 12 70.964844 12 50.011719 C 12 29.054688 29.046875 12.011719 50 12.011719 C 61.023438 12.011719 70.9375 16.757812 77.882812 24.28125 L 80.710938 21.453125 C 73.035156 13.207031 62.125 8.011719 50 8.011719 C 26.84375 8.011719 8 26.851562 8 50.011719 C 8 73.171875 26.84375 92.011719 50 92.011719 C 59.324219 92.011719 68.121094 88.949219 75.261719 83.5625 Z M 72.40625 80.710938 "/>
    <path style="fill:none;stroke-width:2;stroke-linecap:butt;stroke-linejoin:miter;stroke:#1abc9c;stroke-opacity:1;stroke-miterlimit:10;" d="M 32.101562 17.056641 C 32.685547 18.935547 33 20.933594 33 23.005859 C 33 26.308594 32.199219 29.423828 30.78125 32.169922 C 29.023438 35.570312 26.320312 38.404297 23.017578 40.318359 M 38.974609 22.972656 C 38.990234 23.314453 39 23.658203 39 24.005859 C 39 27.308594 38.199219 30.423828 36.78125 33.169922 C 34.640625 37.314453 31.091797 40.615234 26.769531 42.439453 " transform="matrix(2,0,0,2,0,0)"/>
    <path style="fill:none;stroke-width:2;stroke-linecap:butt;stroke-linejoin:miter;stroke:#1abc9c;stroke-opacity:1;stroke-miterlimit:10;" d="M 17.476562 15.777344 C 19.230469 15.273438 21.083984 15.005859 23 15.005859 C 33.617188 15.005859 42.300781 23.277344 42.960938 33.728516 " transform="matrix(2,0,0,2,0,0)"/>
    <path style="fill:none;stroke-width:2;stroke-linecap:butt;stroke-linejoin:miter;stroke:#1abc9c;stroke-opacity:1;stroke-miterlimit:10;" d="M 22.585938 10.054688 C 23.052734 10.021484 23.523438 10.005859 24 10.005859 C 35.046875 10.005859 44 18.958984 44 30.005859 C 44 30.478516 43.984375 30.947266 43.951172 31.412109 " transform="matrix(2,0,0,2,0,0)"/>
    <path style="fill:none;stroke-width:2;stroke-linecap:butt;stroke-linejoin:miter;stroke:#1abc9c;stroke-opacity:1;stroke-miterlimit:10;" d="M 28 5.253906 C 27.835938 5.228516 27.671875 5.199219 27.505859 5.179688 C 17.640625 6.408203 10 14.806641 10 25.005859 C 10 35.203125 17.640625 43.601562 27.505859 44.830078 C 27.671875 44.810547 27.835938 44.78125 28 44.755859 " transform="matrix(2,0,0,2,0,0)"/>
    <path style="fill:none;stroke-width:2;stroke-linecap:butt;stroke-linejoin:miter;stroke:#1abc9c;stroke-opacity:1;stroke-miterlimit:10;" d="M 31.621094 6.150391 C 22.189453 7.693359 15 15.527344 15 25.005859 C 15 34.482422 22.189453 42.316406 31.621094 43.859375 " transform="matrix(2,0,0,2,0,0)"/>
    <path style=" stroke:none;fill-rule:nonzero;fill:#1abc9c;fill-opacity:1;" d="M 20.050781 77.128906 L 9.988281 87.195312 L 6 94.011719 L 12.816406 90.023438 L 22.878906 79.957031 Z M 20.050781 77.128906 "/>
    <path style="fill:none;stroke-width:2;stroke-linecap:butt;stroke-linejoin:miter;stroke:#1abc9c;stroke-opacity:1;stroke-miterlimit:10;" d="M 36.033203 13.972656 L 42.732422 7.271484 M 44.5 3.005859 C 43.119141 3.005859 42 4.125 42 5.505859 C 42 6.884766 43.119141 8.005859 44.5 8.005859 C 45.880859 8.005859 47 6.884766 47 5.505859 C 47 4.125 45.880859 3.005859 44.5 3.005859 Z M 44.5 3.005859 " transform="matrix(2,0,0,2,0,0)"/>
    <path style=" stroke:none;fill-rule:nonzero;fill:#1abc9c;fill-opacity:1;" d="M 72.132812 69.3125 L 90.011719 87.195312 L 94 94.011719 L 87.183594 90.023438 L 69.304688 72.140625 Z M 72.132812 69.3125 "/>
    <path style="fill:none;stroke-width:2;stroke-linecap:butt;stroke-linejoin:miter;stroke:#1abc9c;stroke-opacity:1;stroke-miterlimit:10;" d="M 10.861328 10.865234 L 7.267578 7.271484 M 5.5 3.005859 C 4.119141 3.005859 3 4.125 3 5.505859 C 3 6.884766 4.119141 8.005859 5.5 8.005859 C 6.880859 8.005859 8 6.884766 8 5.505859 C 8 4.125 6.880859 3.005859 5.5 3.005859 Z M 5.5 3.005859 " transform="matrix(2,0,0,2,0,0)"/>
  </g>
</svg>